<svg width="24" height="25" viewBox="0 0 24 25" fill="none" xmlns="http://www.w3.org/2000/svg">
<path d="M11.9998 15.1765C11.8793 15.1765 11.7671 15.1573 11.6633 15.1188C11.5594 15.0803 11.4607 15.0143 11.367 14.9208L6.87276 10.4265C6.73442 10.288 6.66359 10.1139 6.66026 9.90427C6.65709 9.69477 6.72792 9.51752 6.87276 9.37252C7.01776 9.22769 7.19342 9.15527 7.39976 9.15527C7.60609 9.15527 7.78176 9.22769 7.92676 9.37252L11.9998 13.4458L16.0728 9.37252C16.2113 9.23419 16.3853 9.16336 16.595 9.16002C16.8045 9.15686 16.9818 9.22769 17.1268 9.37252C17.2716 9.51752 17.344 9.69319 17.344 9.89952C17.344 10.1059 17.2716 10.2815 17.1268 10.4265L12.6325 14.9208C12.5388 15.0143 12.4401 15.0803 12.3363 15.1188C12.2324 15.1573 12.1203 15.1765 11.9998 15.1765Z" fill="#B7B7B7"/>
</svg>
