<svg width="22" height="23" viewBox="0 0 22 23" fill="none" xmlns="http://www.w3.org/2000/svg">
<path d="M10.5598 13.4928L7.67115 10.6044C7.63143 10.5645 7.60011 10.52 7.57719 10.4708C7.55427 10.4218 7.54282 10.3691 7.54282 10.3129C7.54282 10.2006 7.58078 10.103 7.65671 10.02C7.73264 9.93722 7.83271 9.89581 7.95692 9.89581H14.0422C14.1664 9.89581 14.2665 9.93767 14.3424 10.0214C14.4184 10.105 14.4563 10.2025 14.4563 10.314C14.4563 10.342 14.4135 10.4388 14.3278 10.6044L11.4393 13.4928C11.373 13.5593 11.3044 13.6078 11.2335 13.6383C11.1627 13.6689 11.0847 13.6842 10.9996 13.6842C10.9145 13.6842 10.8365 13.6689 10.7656 13.6383C10.6947 13.6078 10.6261 13.5593 10.5598 13.4928Z" fill="#B7B7B7"/>
</svg>
