<svg width="22" height="22" viewBox="0 0 22 22" fill="none" xmlns="http://www.w3.org/2000/svg">
<path d="M4.58334 17.4167H5.73972L15.1232 8.03321L13.9668 6.87683L4.58334 16.2603V17.4167ZM4.03701 18.7917C3.80219 18.7917 3.60541 18.7122 3.44668 18.5533C3.28779 18.3946 3.20834 18.1978 3.20834 17.963V16.3749C3.20834 16.1514 3.25127 15.9383 3.33714 15.7357C3.42284 15.5331 3.54094 15.3566 3.69143 15.2061L15.2996 3.60319C15.4382 3.4773 15.5912 3.38005 15.7587 3.31146C15.9263 3.24271 16.1019 3.20833 16.2857 3.20833C16.4695 3.20833 16.6475 3.24095 16.8197 3.30619C16.992 3.37142 17.1446 3.47516 17.2773 3.61739L18.3968 4.75085C18.5391 4.88362 18.6404 5.03639 18.7009 5.20919C18.7614 5.38198 18.7917 5.55477 18.7917 5.72756C18.7917 5.91196 18.7602 6.08789 18.6973 6.25533C18.6343 6.42293 18.5342 6.57601 18.3968 6.71458L6.79388 18.3086C6.6434 18.4591 6.46686 18.5772 6.26428 18.6629C6.0617 18.7487 5.84865 18.7917 5.62514 18.7917H4.03701ZM14.5349 7.4651L13.9668 6.87683L15.1232 8.03321L14.5349 7.4651Z" fill="#B7B7B7"/>
</svg>
