<svg width="177" height="48" viewBox="0 0 177 48" fill="none" xmlns="http://www.w3.org/2000/svg">
<rect x="0.5" y="0.5" width="176" height="47" rx="7.5" stroke="url(#paint0_linear_2001_31)"/>
<rect x="8" y="8" width="98" height="32" rx="2" fill="#141414"/>
<path d="M17.26 31V18.04H18.961L23.659 27.787L28.33 18.04H30.049V30.991H28.267V22.126L24.082 31H23.227L19.033 22.126V31H17.26ZM33.6705 31L37.8825 18.04H40.5915L44.8035 31H42.8505L38.9715 19.174H39.4575L35.6235 31H33.6705ZM35.8575 28.075V26.311H42.6255V28.075H35.8575ZM48.4182 31V18.04H53.6562C53.7822 18.04 53.9382 18.046 54.1242 18.058C54.3102 18.064 54.4872 18.082 54.6552 18.112C55.3752 18.226 55.9752 18.472 56.4552 18.85C56.9412 19.228 57.3042 19.705 57.5442 20.281C57.7842 20.857 57.9042 21.493 57.9042 22.189C57.9042 23.221 57.6402 24.112 57.1122 24.862C56.5842 25.606 55.7922 26.071 54.7362 26.257L53.9712 26.347H50.2992V31H48.4182ZM55.9962 31L53.4402 25.726L55.3392 25.24L58.1472 31H55.9962ZM50.2992 24.565H53.5842C53.7042 24.565 53.8362 24.559 53.9802 24.547C54.1302 24.535 54.2712 24.514 54.4032 24.484C54.7872 24.394 55.0962 24.229 55.3302 23.989C55.5642 23.743 55.7322 23.461 55.8342 23.143C55.9362 22.825 55.9872 22.507 55.9872 22.189C55.9872 21.871 55.9362 21.556 55.8342 21.244C55.7322 20.926 55.5642 20.647 55.3302 20.407C55.0962 20.161 54.7872 19.993 54.4032 19.903C54.2712 19.867 54.1302 19.843 53.9802 19.831C53.8362 19.819 53.7042 19.813 53.5842 19.813H50.2992V24.565ZM62.1252 31V18.04H64.0062V24.088L69.4332 18.04H71.7732L66.0402 24.367L72.1962 31H69.7842L64.0062 24.808V31H62.1252ZM75.4631 31V18.04H83.7431V19.813H77.3441V23.449H82.6631V25.222H77.3441V29.227H83.7431V31H75.4631ZM91.1355 31V19.813H86.8245V18.04H97.3275V19.813H93.0165V31H91.1355Z" fill="white"/>
<path d="M113.692 30V17.4H118.876C119.992 17.4 120.946 17.58 121.738 17.94C122.542 18.3 123.16 18.816 123.592 19.488C124.024 20.16 124.24 20.958 124.24 21.882C124.24 22.806 124.024 23.604 123.592 24.276C123.16 24.948 122.542 25.464 121.738 25.824C120.946 26.184 119.992 26.364 118.876 26.364H114.988L116.032 25.266V30H113.692ZM116.032 25.518L114.988 24.384H118.768C119.8 24.384 120.574 24.168 121.09 23.736C121.618 23.292 121.882 22.674 121.882 21.882C121.882 21.078 121.618 20.46 121.09 20.028C120.574 19.596 119.8 19.38 118.768 19.38H114.988L116.032 18.228V25.518ZM126.677 30V17.4H131.861C132.977 17.4 133.931 17.58 134.723 17.94C135.527 18.3 136.145 18.816 136.577 19.488C137.009 20.16 137.225 20.958 137.225 21.882C137.225 22.806 137.009 23.604 136.577 24.276C136.145 24.936 135.527 25.446 134.723 25.806C133.931 26.154 132.977 26.328 131.861 26.328H127.973L129.017 25.266V30H126.677ZM134.921 30L131.735 25.428H134.237L137.441 30H134.921ZM129.017 25.518L127.973 24.402H131.753C132.785 24.402 133.559 24.18 134.075 23.736C134.603 23.292 134.867 22.674 134.867 21.882C134.867 21.078 134.603 20.46 134.075 20.028C133.559 19.596 132.785 19.38 131.753 19.38H127.973L129.017 18.228V25.518ZM145.847 30.18C144.863 30.18 143.957 30.018 143.129 29.694C142.301 29.37 141.581 28.92 140.969 28.344C140.357 27.756 139.883 27.072 139.547 26.292C139.211 25.5 139.043 24.636 139.043 23.7C139.043 22.764 139.211 21.906 139.547 21.126C139.883 20.334 140.357 19.65 140.969 19.074C141.581 18.486 142.301 18.03 143.129 17.706C143.957 17.382 144.857 17.22 145.829 17.22C146.813 17.22 147.713 17.382 148.529 17.706C149.357 18.03 150.077 18.486 150.689 19.074C151.301 19.65 151.775 20.334 152.111 21.126C152.447 21.906 152.615 22.764 152.615 23.7C152.615 24.636 152.447 25.5 152.111 26.292C151.775 27.084 151.301 27.768 150.689 28.344C150.077 28.92 149.357 29.37 148.529 29.694C147.713 30.018 146.819 30.18 145.847 30.18ZM145.829 28.128C146.465 28.128 147.053 28.02 147.593 27.804C148.133 27.588 148.601 27.282 148.997 26.886C149.393 26.478 149.699 26.01 149.915 25.482C150.143 24.942 150.257 24.348 150.257 23.7C150.257 23.052 150.143 22.464 149.915 21.936C149.699 21.396 149.393 20.928 148.997 20.532C148.601 20.124 148.133 19.812 147.593 19.596C147.053 19.38 146.465 19.272 145.829 19.272C145.193 19.272 144.605 19.38 144.065 19.596C143.537 19.812 143.069 20.124 142.661 20.532C142.265 20.928 141.953 21.396 141.725 21.936C141.509 22.464 141.401 23.052 141.401 23.7C141.401 24.336 141.509 24.924 141.725 25.464C141.953 26.004 142.265 26.478 142.661 26.886C143.057 27.282 143.525 27.588 144.065 27.804C144.605 28.02 145.193 28.128 145.829 28.128ZM155.195 30V17.4H160.703C162.071 17.4 163.271 17.664 164.303 18.192C165.335 18.72 166.139 19.452 166.715 20.388C167.291 21.324 167.579 22.428 167.579 23.7C167.579 24.96 167.291 26.064 166.715 27.012C166.139 27.948 165.335 28.68 164.303 29.208C163.271 29.736 162.071 30 160.703 30H155.195ZM157.535 28.02H160.595C161.543 28.02 162.359 27.84 163.043 27.48C163.739 27.12 164.273 26.616 164.645 25.968C165.029 25.32 165.221 24.564 165.221 23.7C165.221 22.824 165.029 22.068 164.645 21.432C164.273 20.784 163.739 20.28 163.043 19.92C162.359 19.56 161.543 19.38 160.595 19.38H157.535V28.02Z" fill="#141414"/>
<defs>
<linearGradient id="paint0_linear_2001_31" x1="0" y1="24" x2="177" y2="24" gradientUnits="userSpaceOnUse">
<stop stop-color="#FD3237"/>
<stop offset="1" stop-color="#7733FC"/>
</linearGradient>
</defs>
</svg>
