<svg width="28" height="29" viewBox="0 0 28 29" fill="none" xmlns="http://www.w3.org/2000/svg">
<path d="M14.0003 3.41669C15.3724 3.41627 16.7085 3.85569 17.8126 4.67047C18.9166 5.48525 19.7303 6.63246 20.1344 7.94373C20.5385 9.255 20.5116 10.6613 20.0576 11.9561C19.6037 13.251 18.7467 14.3662 17.6123 15.1382C19.5812 15.8604 21.289 17.1553 22.5157 18.8563C23.7424 20.5573 24.432 22.5865 24.4956 24.6827C24.5016 24.799 24.4842 24.9154 24.4446 25.025C24.405 25.1345 24.3439 25.2351 24.2649 25.3207C24.1859 25.4063 24.0906 25.4753 23.9845 25.5236C23.8785 25.5719 23.7639 25.5986 23.6475 25.602C23.531 25.6054 23.415 25.5855 23.3064 25.5435C23.1977 25.5015 23.0985 25.4383 23.0146 25.3574C22.9307 25.2766 22.8638 25.1798 22.8178 25.0727C22.7718 24.9657 22.7477 24.8505 22.7468 24.734C22.6773 22.4607 21.7254 20.3038 20.0928 18.7203C18.4602 17.1369 16.2752 16.2513 14.0009 16.2513C11.7265 16.2513 9.54153 17.1369 7.90894 18.7203C6.27634 20.3038 5.32445 22.4607 5.25497 24.734C5.24801 24.9661 5.14915 25.1859 4.98013 25.3451C4.81111 25.5042 4.58579 25.5897 4.35372 25.5828C4.12166 25.5758 3.90186 25.4769 3.74269 25.3079C3.58352 25.1389 3.49801 24.9136 3.50497 24.6815C3.56884 22.5855 4.25852 20.5565 5.48523 18.8558C6.71194 17.155 8.41955 15.8603 10.3883 15.1382C9.25394 14.3662 8.3969 13.251 7.94297 11.9561C7.48905 10.6613 7.46215 9.255 7.86622 7.94373C8.27029 6.63246 9.08405 5.48525 10.1881 4.67047C11.2921 3.85569 12.6282 3.41627 14.0003 3.41669ZM9.33364 9.83335C9.33364 11.071 9.8253 12.258 10.7005 13.1332C11.5756 14.0084 12.7626 14.5 14.0003 14.5C15.238 14.5 16.425 14.0084 17.3001 13.1332C18.1753 12.258 18.667 11.071 18.667 9.83335C18.667 8.59568 18.1753 7.40869 17.3001 6.53352C16.425 5.65835 15.238 5.16669 14.0003 5.16669C12.7626 5.16669 11.5756 5.65835 10.7005 6.53352C9.8253 7.40869 9.33364 8.59568 9.33364 9.83335Z" fill="#B7B7B7"/>
</svg>
