<svg width="19" height="18" viewBox="0 0 19 18" fill="none" xmlns="http://www.w3.org/2000/svg">
<circle opacity="0.8" cx="9.60001" cy="9" r="9" fill="white"/>
<path d="M11.0774 7.00835C11.0774 6.59552 10.9395 6.26394 10.6635 6.0136C10.3875 5.76335 10.0232 5.63823 9.57066 5.63823C9.28416 5.63823 9.03016 5.69669 8.80866 5.8136C8.58716 5.9306 8.39596 6.10673 8.23504 6.34198C8.14021 6.47598 8.01346 6.55514 7.85479 6.57948C7.69621 6.60389 7.55758 6.56514 7.43891 6.46323C7.35116 6.38689 7.30104 6.29123 7.28854 6.17623C7.27604 6.06114 7.30279 5.95198 7.36879 5.84873C7.62262 5.46481 7.93658 5.17285 8.31066 4.97285C8.68466 4.77285 9.10466 4.67285 9.57066 4.67285C10.3149 4.67285 10.9207 4.88598 11.388 5.31223C11.8553 5.73848 12.0889 6.2936 12.0889 6.9776C12.0889 7.33977 12.0114 7.67164 11.8563 7.97323C11.7011 8.27489 11.4367 8.59944 11.063 8.94685C10.713 9.26419 10.4742 9.52173 10.3467 9.71948C10.2191 9.91723 10.145 10.1395 10.1245 10.3862C10.104 10.5286 10.0451 10.6471 9.94766 10.742C9.85016 10.8369 9.73283 10.8844 9.59566 10.8844C9.4585 10.8844 9.34121 10.8374 9.24379 10.7435C9.14637 10.6496 9.09766 10.534 9.09766 10.3969C9.09766 10.0623 9.17408 9.75635 9.32691 9.4791C9.47983 9.20185 9.73579 8.9036 10.0948 8.58435C10.4781 8.24785 10.7377 7.96706 10.8735 7.74198C11.0095 7.51698 11.0774 7.27244 11.0774 7.00835ZM9.57066 13.7497C9.36616 13.7497 9.19004 13.6759 9.04229 13.5281C8.89454 13.3804 8.82066 13.2042 8.82066 12.9997C8.82066 12.7952 8.89454 12.6191 9.04229 12.4714C9.19004 12.3236 9.36616 12.2497 9.57066 12.2497C9.77516 12.2497 9.95129 12.3236 10.099 12.4714C10.2468 12.6191 10.3207 12.7952 10.3207 12.9997C10.3207 13.2042 10.2468 13.3804 10.099 13.5281C9.95129 13.6759 9.77516 13.7497 9.57066 13.7497Z" fill="#141414"/>
</svg>
