<svg width="20" height="20" viewBox="0 0 20 20" fill="none" xmlns="http://www.w3.org/2000/svg">
<circle cx="10" cy="10" r="10" fill="#F8F8F8"/>
<path d="M11.7246 7.67788C11.7246 7.19624 11.5637 6.80939 11.2418 6.51733C10.9198 6.22538 10.4948 6.0794 9.96674 6.0794C9.63249 6.0794 9.33616 6.1476 9.07774 6.284C8.81933 6.4205 8.59625 6.62598 8.40851 6.90044C8.29788 7.05677 8.15 7.14913 7.96489 7.17752C7.77988 7.20601 7.61815 7.1608 7.4797 7.0419C7.37733 6.95284 7.31885 6.84123 7.30426 6.70706C7.28968 6.5728 7.32089 6.44544 7.39789 6.32498C7.69403 5.87708 8.06031 5.53646 8.49674 5.30313C8.93308 5.06979 9.42308 4.95312 9.96674 4.95312C10.835 4.95312 11.5418 5.20177 12.087 5.69906C12.6321 6.19635 12.9047 6.844 12.9047 7.642C12.9047 8.06453 12.8142 8.45172 12.6333 8.80356C12.4523 9.15551 12.1438 9.53414 11.7078 9.93946C11.2995 10.3097 11.0209 10.6101 10.8721 10.8409C10.7232 11.0716 10.6368 11.3309 10.6129 11.6187C10.589 11.7848 10.5202 11.9231 10.4066 12.0338C10.2928 12.1445 10.1559 12.1999 9.99591 12.1999C9.83588 12.1999 9.69904 12.1451 9.58539 12.0355C9.47174 11.926 9.41491 11.7912 9.41491 11.6311C9.41491 11.2408 9.50406 10.8839 9.68237 10.5604C9.86077 10.237 10.1594 9.889 10.5782 9.51654C11.0254 9.12396 11.3283 8.79637 11.4868 8.53377C11.6453 8.27127 11.7246 7.98597 11.7246 7.67788ZM9.96674 15.5428C9.72816 15.5428 9.52268 15.4566 9.35031 15.2843C9.17793 15.1119 9.09174 14.9064 9.09174 14.6678C9.09174 14.4292 9.17793 14.2238 9.35031 14.0514C9.52268 13.879 9.72816 13.7928 9.96674 13.7928C10.2053 13.7928 10.4108 13.879 10.5832 14.0514C10.7556 14.2238 10.8417 14.4292 10.8417 14.6678C10.8417 14.9064 10.7556 15.1119 10.5832 15.2843C10.4108 15.4566 10.2053 15.5428 9.96674 15.5428Z" fill="#141414" stroke="#141414" stroke-width="0.5"/>
</svg>
